<svg width="14" height="14" viewBox="0 0 14 14" fill="none" xmlns="http://www.w3.org/2000/svg">
  <path d="M3.08301 12.2524C2.29883 12.2524 1.78857 11.7476 1.78857 10.9795V4.75879C1.78857 3.99072 2.29883 3.48584 3.08301 3.48584H4.72656V2.72412C4.72656 1.95605 5.23682 1.47266 6.03711 1.47266H7.96289C8.76318 1.47266 9.27344 1.95605 9.27344 2.72412V3.48584H10.9165C11.7007 3.48584 12.2109 3.99072 12.2109 4.75879V10.9795C12.2109 11.7476 11.7007 12.2524 10.9165 12.2524H3.08301ZM5.58057 3.48584H8.41943V2.77832C8.41943 2.47217 8.19922 2.26807 7.88232 2.26807H6.11768C5.80078 2.26807 5.58057 2.47217 5.58057 2.77832V3.48584ZM2.6416 6.19092H11.3579V4.8125C11.3579 4.49023 11.1323 4.25928 10.8047 4.25928H3.19482C2.86719 4.25928 2.6416 4.49023 2.6416 4.8125V6.19092ZM3.19482 11.4683H10.8047C11.1323 11.4683 11.3579 11.2427 11.3579 10.9204V6.94824H2.6416V10.9204C2.6416 11.2427 2.86719 11.4683 3.19482 11.4683Z" fill="#007AFF"/>
</svg>
